<?xml version="1.0" encoding="UTF-8" standalone="no"?>
<!DOCTYPE svg PUBLIC "-//W3C//DTD SVG 1.1//EN"
 "http://www.w3.org/Graphics/SVG/1.1/DTD/svg11.dtd">
<!-- Generated by graphviz version 10.0.1 (0)
 -->
<!-- Title: G Pages: 1 -->
<svg width="314pt" height="222pt"
 viewBox="0.00 0.00 314.50 221.60" xmlns="http://www.w3.org/2000/svg" xmlns:xlink="http://www.w3.org/1999/xlink">
<g id="graph0" class="graph" transform="scale(1 1) rotate(0) translate(4 217.6)">
<title>G</title>
<polygon fill="white" stroke="none" points="-4,4 -4,-217.6 310.5,-217.6 310.5,4 -4,4"/>
<!-- root -->
<g id="node1" class="node">
<title>root</title>
<ellipse fill="none" stroke="black" cx="153.25" cy="-195.6" rx="27" ry="18"/>
<text text-anchor="middle" x="153.25" y="-191.4" font-family="Times,serif" font-size="14.00">root</text>
</g>
<!-- root_1 -->
<g id="node2" class="node">
<title>root_1</title>
<ellipse fill="none" stroke="black" cx="36.25" cy="-106.8" rx="36.25" ry="18"/>
<text text-anchor="middle" x="36.25" y="-102.6" font-family="Times,serif" font-size="14.00">root_1</text>
</g>
<!-- root&#45;&gt;root_1 -->
<g id="edge1" class="edge">
<title>root&#45;&gt;root_1</title>
<path fill="none" stroke="black" d="M135.73,-181.61C116.99,-167.7 86.97,-145.43 64.8,-128.98"/>
<polygon fill="black" stroke="black" points="67.17,-126.38 57.06,-123.24 63,-132.01 67.17,-126.38"/>
<text text-anchor="middle" x="108.75" y="-147" font-family="Times,serif" font-size="14.00">1</text>
</g>
<!-- secondParent -->
<g id="node3" class="node">
<title>secondParent</title>
<ellipse fill="none" stroke="black" cx="153.25" cy="-106.8" rx="62.52" ry="18"/>
<text text-anchor="middle" x="153.25" y="-102.6" font-family="Times,serif" font-size="14.00">secondParent</text>
</g>
<!-- root&#45;&gt;secondParent -->
<g id="edge2" class="edge">
<title>root&#45;&gt;secondParent</title>
<path fill="none" stroke="black" d="M153.25,-177.45C153.25,-165.76 153.25,-149.99 153.25,-136.42"/>
<polygon fill="black" stroke="black" points="156.75,-136.72 153.25,-126.72 149.75,-136.72 156.75,-136.72"/>
</g>
<!-- root_4 -->
<g id="node6" class="node">
<title>root_4</title>
<ellipse fill="none" stroke="black" cx="270.25" cy="-106.8" rx="36.25" ry="18"/>
<text text-anchor="middle" x="270.25" y="-102.6" font-family="Times,serif" font-size="14.00">root_4</text>
</g>
<!-- root&#45;&gt;root_4 -->
<g id="edge5" class="edge">
<title>root&#45;&gt;root_4</title>
<path fill="none" stroke="black" d="M170.77,-181.61C189.51,-167.7 219.53,-145.43 241.69,-128.98"/>
<polygon fill="black" stroke="black" points="243.5,-132.01 249.44,-123.24 239.33,-126.38 243.5,-132.01"/>
<text text-anchor="middle" x="225.75" y="-147" font-family="Times,serif" font-size="14.00">4</text>
</g>
<!-- secondParent_2 -->
<g id="node4" class="node">
<title>secondParent_2</title>
<ellipse fill="none" stroke="black" cx="72.25" cy="-18" rx="72.18" ry="18"/>
<text text-anchor="middle" x="72.25" y="-13.8" font-family="Times,serif" font-size="14.00">secondParent_2</text>
</g>
<!-- secondParent&#45;&gt;secondParent_2 -->
<g id="edge3" class="edge">
<title>secondParent&#45;&gt;secondParent_2</title>
<path fill="none" stroke="black" d="M137.63,-89.06C125.72,-76.3 109.12,-58.51 95.62,-44.05"/>
<polygon fill="black" stroke="black" points="98.51,-42.01 89.13,-37.09 93.39,-46.79 98.51,-42.01"/>
<text text-anchor="middle" x="123.75" y="-58.2" font-family="Times,serif" font-size="14.00">2</text>
</g>
<!-- secondParent_3 -->
<g id="node5" class="node">
<title>secondParent_3</title>
<ellipse fill="none" stroke="black" cx="234.25" cy="-18" rx="72.18" ry="18"/>
<text text-anchor="middle" x="234.25" y="-13.8" font-family="Times,serif" font-size="14.00">secondParent_3</text>
</g>
<!-- secondParent&#45;&gt;secondParent_3 -->
<g id="edge4" class="edge">
<title>secondParent&#45;&gt;secondParent_3</title>
<path fill="none" stroke="black" d="M168.87,-89.06C180.78,-76.3 197.38,-58.51 210.88,-44.05"/>
<polygon fill="black" stroke="black" points="213.11,-46.79 217.37,-37.09 207.99,-42.01 213.11,-46.79"/>
<text text-anchor="middle" x="204.75" y="-58.2" font-family="Times,serif" font-size="14.00">3</text>
</g>
</g>
</svg>
