<?xml version="1.0" encoding="UTF-8" standalone="no"?>
<!DOCTYPE svg PUBLIC "-//W3C//DTD SVG 1.1//EN"
 "http://www.w3.org/Graphics/SVG/1.1/DTD/svg11.dtd">
<!-- Generated by graphviz version 10.0.1 (0)
 -->
<!-- Title: G Pages: 1 -->
<svg width="314pt" height="260pt"
 viewBox="0.00 0.00 314.00 260.00" xmlns="http://www.w3.org/2000/svg" xmlns:xlink="http://www.w3.org/1999/xlink">
<g id="graph0" class="graph" transform="scale(1 1) rotate(0) translate(4 256)">
<title>G</title>
<polygon fill="white" stroke="none" points="-4,4 -4,-256 310,-256 310,4 -4,4"/>
<!-- root -->
<g id="node1" class="node">
<title>root</title>
<ellipse fill="#d5e8d4" stroke="#83b467" cx="171" cy="-234" rx="27.68" ry="18"/>
<text text-anchor="middle" x="171" y="-229.8" font-family="Helvetica,sans-Serif" font-size="14.00">root</text>
</g>
<!-- p2 -->
<g id="node2" class="node">
<title>p2</title>
<ellipse fill="#dae8fc" stroke="#7192c2" cx="135" cy="-162" rx="27" ry="18"/>
<text text-anchor="middle" x="135" y="-157.8" font-family="Helvetica,sans-Serif" font-size="14.00">p2</text>
</g>
<!-- root&#45;&gt;p2 -->
<g id="edge1" class="edge">
<title>root&#45;&gt;p2</title>
<path fill="none" stroke="black" d="M162.47,-216.41C158.34,-208.39 153.29,-198.57 148.65,-189.54"/>
<polygon fill="black" stroke="black" points="151.85,-188.11 144.16,-180.82 145.62,-191.31 151.85,-188.11"/>
</g>
<!-- p3 -->
<g id="node7" class="node">
<title>p3</title>
<ellipse fill="#dae8fc" stroke="#7192c2" cx="207" cy="-162" rx="27" ry="18"/>
<text text-anchor="middle" x="207" y="-157.8" font-family="Helvetica,sans-Serif" font-size="14.00">p3</text>
</g>
<!-- root&#45;&gt;p3 -->
<g id="edge6" class="edge">
<title>root&#45;&gt;p3</title>
<path fill="none" stroke="black" d="M179.53,-216.41C183.66,-208.39 188.71,-198.57 193.35,-189.54"/>
<polygon fill="black" stroke="black" points="196.38,-191.31 197.84,-180.82 190.15,-188.11 196.38,-191.31"/>
</g>
<!-- ln -->
<g id="node3" class="node">
<title>ln</title>
<ellipse fill="#fff2cc" stroke="#d6b656" cx="63" cy="-90" rx="27" ry="18"/>
<text text-anchor="middle" x="63" y="-85.8" font-family="Helvetica,sans-Serif" font-size="14.00">ln</text>
</g>
<!-- p2&#45;&gt;ln -->
<g id="edge2" class="edge">
<title>p2&#45;&gt;ln</title>
<path fill="none" stroke="black" d="M120.08,-146.5C110.23,-136.92 97.14,-124.19 85.97,-113.34"/>
<polygon fill="black" stroke="black" points="88.59,-111 78.98,-106.54 83.71,-116.02 88.59,-111"/>
</g>
<!-- rn -->
<g id="node6" class="node">
<title>rn</title>
<ellipse fill="#fff2cc" stroke="#d6b656" cx="135" cy="-90" rx="27" ry="18"/>
<text text-anchor="middle" x="135" y="-85.8" font-family="Helvetica,sans-Serif" font-size="14.00">rn</text>
</g>
<!-- p2&#45;&gt;rn -->
<g id="edge5" class="edge">
<title>p2&#45;&gt;rn</title>
<path fill="none" stroke="black" d="M135,-143.7C135,-136.41 135,-127.73 135,-119.54"/>
<polygon fill="black" stroke="black" points="138.5,-119.62 135,-109.62 131.5,-119.62 138.5,-119.62"/>
</g>
<!-- 5 -->
<g id="node4" class="node">
<title>5</title>
<ellipse fill="#f8cecc" stroke="#bd6460" cx="27" cy="-18" rx="27" ry="18"/>
<text text-anchor="middle" x="27" y="-13.8" font-family="Helvetica,sans-Serif" font-size="14.00">5</text>
</g>
<!-- ln&#45;&gt;5 -->
<g id="edge3" class="edge">
<title>ln&#45;&gt;5</title>
<path fill="none" stroke="black" d="M54.65,-72.76C50.42,-64.55 45.19,-54.37 40.42,-45.09"/>
<polygon fill="black" stroke="black" points="43.68,-43.79 36,-36.49 37.46,-46.99 43.68,-43.79"/>
</g>
<!-- 6 -->
<g id="node5" class="node">
<title>6</title>
<ellipse fill="#f8cecc" stroke="#bd6460" cx="99" cy="-18" rx="27" ry="18"/>
<text text-anchor="middle" x="99" y="-13.8" font-family="Helvetica,sans-Serif" font-size="14.00">6</text>
</g>
<!-- ln&#45;&gt;6 -->
<g id="edge4" class="edge">
<title>ln&#45;&gt;6</title>
<path fill="none" stroke="black" d="M71.35,-72.76C75.58,-64.55 80.81,-54.37 85.58,-45.09"/>
<polygon fill="black" stroke="black" points="88.54,-46.99 90,-36.49 82.32,-43.79 88.54,-46.99"/>
</g>
<!-- ln2 -->
<g id="node8" class="node">
<title>ln2</title>
<ellipse fill="#fff2cc" stroke="#d6b656" cx="207" cy="-90" rx="27" ry="18"/>
<text text-anchor="middle" x="207" y="-85.8" font-family="Helvetica,sans-Serif" font-size="14.00">ln2</text>
</g>
<!-- p3&#45;&gt;ln2 -->
<g id="edge7" class="edge">
<title>p3&#45;&gt;ln2</title>
<path fill="none" stroke="black" d="M207,-143.7C207,-136.41 207,-127.73 207,-119.54"/>
<polygon fill="black" stroke="black" points="210.5,-119.62 207,-109.62 203.5,-119.62 210.5,-119.62"/>
</g>
<!-- rn2 -->
<g id="node9" class="node">
<title>rn2</title>
<ellipse fill="#fff2cc" stroke="#d6b656" cx="279" cy="-90" rx="27" ry="18"/>
<text text-anchor="middle" x="279" y="-85.8" font-family="Helvetica,sans-Serif" font-size="14.00">rn2</text>
</g>
<!-- p3&#45;&gt;rn2 -->
<g id="edge8" class="edge">
<title>p3&#45;&gt;rn2</title>
<path fill="none" stroke="black" d="M221.92,-146.5C231.77,-136.92 244.86,-124.19 256.03,-113.34"/>
<polygon fill="black" stroke="black" points="258.29,-116.02 263.02,-106.54 253.41,-111 258.29,-116.02"/>
</g>
</g>
</svg>
