<?xml version="1.0" encoding="UTF-8" standalone="no"?>
<!DOCTYPE svg PUBLIC "-//W3C//DTD SVG 1.1//EN"
 "http://www.w3.org/Graphics/SVG/1.1/DTD/svg11.dtd">
<!-- Generated by graphviz version 10.0.1 (0)
 -->
<!-- Title: G Pages: 1 -->
<svg width="220pt" height="133pt"
 viewBox="0.00 0.00 220.03 132.80" xmlns="http://www.w3.org/2000/svg" xmlns:xlink="http://www.w3.org/1999/xlink">
<g id="graph0" class="graph" transform="scale(1 1) rotate(0) translate(4 128.8)">
<title>G</title>
<polygon fill="white" stroke="none" points="-4,4 -4,-128.8 216.03,-128.8 216.03,4 -4,4"/>
<!-- root -->
<g id="node1" class="node">
<title>root</title>
<ellipse fill="none" stroke="black" cx="127.03" cy="-106.8" rx="27" ry="18"/>
<text text-anchor="middle" x="127.03" y="-102.6" font-family="Times,serif" font-size="14.00">root</text>
</g>
<!-- root_rootName -->
<g id="node2" class="node">
<title>root_rootName</title>
<ellipse fill="none" stroke="black" cx="70.03" cy="-18" rx="70.03" ry="18"/>
<text text-anchor="middle" x="70.03" y="-13.8" font-family="Times,serif" font-size="14.00">root_rootName</text>
</g>
<!-- root&#45;&gt;root_rootName -->
<g id="edge1" class="edge">
<title>root&#45;&gt;root_rootName</title>
<path fill="none" stroke="black" d="M116.58,-89.88C108.43,-77.47 96.94,-59.98 87.42,-45.47"/>
<polygon fill="black" stroke="black" points="90.45,-43.71 82.03,-37.27 84.6,-47.55 90.45,-43.71"/>
<text text-anchor="middle" x="132.02" y="-58.2" font-family="Times,serif" font-size="14.00">rootName</text>
</g>
<!-- p1 -->
<g id="node3" class="node">
<title>p1</title>
<ellipse fill="none" stroke="black" cx="185.03" cy="-18" rx="27" ry="18"/>
<text text-anchor="middle" x="185.03" y="-13.8" font-family="Times,serif" font-size="14.00">p1</text>
</g>
<!-- root&#45;&gt;p1 -->
<g id="edge2" class="edge">
<title>root&#45;&gt;p1</title>
<path fill="none" stroke="black" d="M144.06,-92.47C150.95,-86.42 158.55,-78.83 164.03,-70.8 169.08,-63.42 173.21,-54.64 176.43,-46.43"/>
<polygon fill="black" stroke="black" points="179.67,-47.78 179.76,-37.19 173.08,-45.41 179.67,-47.78"/>
</g>
</g>
</svg>
