<?xml version="1.0" encoding="UTF-8" standalone="no"?>
<!DOCTYPE svg PUBLIC "-//W3C//DTD SVG 1.1//EN"
 "http://www.w3.org/Graphics/SVG/1.1/DTD/svg11.dtd">
<!-- Generated by graphviz version 10.0.1 (0)
 -->
<!-- Title: G Pages: 1 -->
<svg width="294pt" height="188pt"
 viewBox="0.00 0.00 294.00 188.00" xmlns="http://www.w3.org/2000/svg" xmlns:xlink="http://www.w3.org/1999/xlink">
<g id="graph0" class="graph" transform="scale(1 1) rotate(0) translate(4 184)">
<title>G</title>
<polygon fill="white" stroke="none" points="-4,4 -4,-184 290,-184 290,4 -4,4"/>
<!-- root -->
<g id="node1" class="node">
<title>root</title>
<ellipse fill="#d5e8d4" stroke="#83b467" cx="143" cy="-162" rx="27.68" ry="18"/>
<text text-anchor="middle" x="143" y="-157.8" font-family="Helvetica,sans-Serif" font-size="14.00">root</text>
</g>
<!-- 1 -->
<g id="node2" class="node">
<title>1</title>
<ellipse fill="#dae8fc" stroke="#7192c2" cx="27" cy="-90" rx="27" ry="18"/>
<text text-anchor="middle" x="27" y="-85.8" font-family="Helvetica,sans-Serif" font-size="14.00">1</text>
</g>
<!-- root&#45;&gt;1 -->
<g id="edge1" class="edge">
<title>root&#45;&gt;1</title>
<path fill="none" stroke="black" d="M123.06,-148.97C104.69,-137.88 77.2,-121.29 56.33,-108.7"/>
<polygon fill="black" stroke="black" points="58.35,-105.83 47.98,-103.66 54.73,-111.82 58.35,-105.83"/>
</g>
<!-- secondParent -->
<g id="node3" class="node">
<title>secondParent</title>
<ellipse fill="#dae8fc" stroke="#7192c2" cx="143" cy="-90" rx="70.63" ry="18"/>
<text text-anchor="middle" x="143" y="-85.8" font-family="Helvetica,sans-Serif" font-size="14.00">secondParent</text>
</g>
<!-- root&#45;&gt;secondParent -->
<g id="edge2" class="edge">
<title>root&#45;&gt;secondParent</title>
<path fill="none" stroke="black" d="M143,-143.7C143,-136.41 143,-127.73 143,-119.54"/>
<polygon fill="black" stroke="black" points="146.5,-119.62 143,-109.62 139.5,-119.62 146.5,-119.62"/>
</g>
<!-- 4 -->
<g id="node6" class="node">
<title>4</title>
<ellipse fill="#dae8fc" stroke="#7192c2" cx="259" cy="-90" rx="27" ry="18"/>
<text text-anchor="middle" x="259" y="-85.8" font-family="Helvetica,sans-Serif" font-size="14.00">4</text>
</g>
<!-- root&#45;&gt;4 -->
<g id="edge5" class="edge">
<title>root&#45;&gt;4</title>
<path fill="none" stroke="black" d="M162.94,-148.97C181.31,-137.88 208.8,-121.29 229.67,-108.7"/>
<polygon fill="black" stroke="black" points="231.27,-111.82 238.02,-103.66 227.65,-105.83 231.27,-111.82"/>
</g>
<!-- 2 -->
<g id="node4" class="node">
<title>2</title>
<ellipse fill="#fff2cc" stroke="#d6b656" cx="107" cy="-18" rx="27" ry="18"/>
<text text-anchor="middle" x="107" y="-13.8" font-family="Helvetica,sans-Serif" font-size="14.00">2</text>
</g>
<!-- secondParent&#45;&gt;2 -->
<g id="edge3" class="edge">
<title>secondParent&#45;&gt;2</title>
<path fill="none" stroke="black" d="M134.1,-71.7C130.02,-63.75 125.08,-54.16 120.55,-45.34"/>
<polygon fill="black" stroke="black" points="123.68,-43.78 116,-36.49 117.46,-46.98 123.68,-43.78"/>
</g>
<!-- 3 -->
<g id="node5" class="node">
<title>3</title>
<ellipse fill="#fff2cc" stroke="#d6b656" cx="179" cy="-18" rx="27" ry="18"/>
<text text-anchor="middle" x="179" y="-13.8" font-family="Helvetica,sans-Serif" font-size="14.00">3</text>
</g>
<!-- secondParent&#45;&gt;3 -->
<g id="edge4" class="edge">
<title>secondParent&#45;&gt;3</title>
<path fill="none" stroke="black" d="M151.9,-71.7C155.98,-63.75 160.92,-54.16 165.45,-45.34"/>
<polygon fill="black" stroke="black" points="168.54,-46.98 170,-36.49 162.32,-43.78 168.54,-46.98"/>
</g>
</g>
</svg>
