<?xml version="1.0" encoding="UTF-8" standalone="no"?>
<!DOCTYPE svg PUBLIC "-//W3C//DTD SVG 1.1//EN"
 "http://www.w3.org/Graphics/SVG/1.1/DTD/svg11.dtd">
<!-- Generated by graphviz version 10.0.1 (0)
 -->
<!-- Title: G Pages: 1 -->
<svg width="402pt" height="188pt"
 viewBox="0.00 0.00 402.44 188.00" xmlns="http://www.w3.org/2000/svg" xmlns:xlink="http://www.w3.org/1999/xlink">
<g id="graph0" class="graph" transform="scale(1 1) rotate(0) translate(4 184)">
<title>G</title>
<polygon fill="white" stroke="none" points="-4,4 -4,-184 398.44,-184 398.44,4 -4,4"/>
<!-- root -->
<g id="node1" class="node">
<title>root</title>
<ellipse fill="#d5e8d4" stroke="#83b467" cx="187.44" cy="-162" rx="27.68" ry="18"/>
<text text-anchor="middle" x="187.44" y="-157.8" font-family="Helvetica,sans-Serif" font-size="14.00">root</text>
</g>
<!-- rootName -->
<g id="node2" class="node">
<title>rootName</title>
<ellipse fill="#dae8fc" stroke="#7192c2" cx="53.44" cy="-90" rx="53.44" ry="18"/>
<text text-anchor="middle" x="53.44" y="-85.8" font-family="Helvetica,sans-Serif" font-size="14.00">rootName</text>
</g>
<!-- root&#45;&gt;rootName -->
<g id="edge1" class="edge">
<title>root&#45;&gt;rootName</title>
<path fill="none" stroke="black" d="M166.2,-149.91C146.19,-139.45 115.73,-123.54 91.51,-110.89"/>
<polygon fill="black" stroke="black" points="93.39,-107.92 82.9,-106.39 90.15,-114.13 93.39,-107.92"/>
</g>
<!-- p1 -->
<g id="node3" class="node">
<title>p1</title>
<ellipse fill="#dae8fc" stroke="#7192c2" cx="151.44" cy="-90" rx="27" ry="18"/>
<text text-anchor="middle" x="151.44" y="-85.8" font-family="Helvetica,sans-Serif" font-size="14.00">p1</text>
</g>
<!-- root&#45;&gt;p1 -->
<g id="edge2" class="edge">
<title>root&#45;&gt;p1</title>
<path fill="none" stroke="black" d="M178.91,-144.41C174.78,-136.39 169.73,-126.57 165.09,-117.54"/>
<polygon fill="black" stroke="black" points="168.29,-116.11 160.6,-108.82 162.06,-119.31 168.29,-116.11"/>
</g>
<!-- sp2 -->
<g id="node4" class="node">
<title>sp2</title>
<ellipse fill="#dae8fc" stroke="#7192c2" cx="223.44" cy="-90" rx="27" ry="18"/>
<text text-anchor="middle" x="223.44" y="-85.8" font-family="Helvetica,sans-Serif" font-size="14.00">sp2</text>
</g>
<!-- root&#45;&gt;sp2 -->
<g id="edge3" class="edge">
<title>root&#45;&gt;sp2</title>
<path fill="none" stroke="black" d="M195.97,-144.41C200.09,-136.39 205.14,-126.57 209.79,-117.54"/>
<polygon fill="black" stroke="black" points="212.81,-119.31 214.27,-108.82 206.59,-116.11 212.81,-119.31"/>
</g>
<!-- sp3 -->
<g id="node7" class="node">
<title>sp3</title>
<ellipse fill="#dae8fc" stroke="#7192c2" cx="295.44" cy="-90" rx="27" ry="18"/>
<text text-anchor="middle" x="295.44" y="-85.8" font-family="Helvetica,sans-Serif" font-size="14.00">sp3</text>
</g>
<!-- root&#45;&gt;sp3 -->
<g id="edge6" class="edge">
<title>root&#45;&gt;sp3</title>
<path fill="none" stroke="black" d="M206.5,-148.65C223.31,-137.75 248.04,-121.72 267.15,-109.33"/>
<polygon fill="black" stroke="black" points="268.81,-112.43 275.3,-104.05 265,-106.56 268.81,-112.43"/>
</g>
<!-- 1 -->
<g id="node5" class="node">
<title>1</title>
<ellipse fill="#fff2cc" stroke="#d6b656" cx="151.44" cy="-18" rx="27" ry="18"/>
<text text-anchor="middle" x="151.44" y="-13.8" font-family="Helvetica,sans-Serif" font-size="14.00">1</text>
</g>
<!-- sp2&#45;&gt;1 -->
<g id="edge4" class="edge">
<title>sp2&#45;&gt;1</title>
<path fill="none" stroke="black" d="M208.52,-74.5C198.67,-64.92 185.58,-52.19 174.41,-41.34"/>
<polygon fill="black" stroke="black" points="177.03,-39 167.42,-34.54 172.15,-44.02 177.03,-39"/>
</g>
<!-- 2 -->
<g id="node6" class="node">
<title>2</title>
<ellipse fill="#fff2cc" stroke="#d6b656" cx="223.44" cy="-18" rx="27" ry="18"/>
<text text-anchor="middle" x="223.44" y="-13.8" font-family="Helvetica,sans-Serif" font-size="14.00">2</text>
</g>
<!-- sp2&#45;&gt;2 -->
<g id="edge5" class="edge">
<title>sp2&#45;&gt;2</title>
<path fill="none" stroke="black" d="M223.44,-71.7C223.44,-64.41 223.44,-55.73 223.44,-47.54"/>
<polygon fill="black" stroke="black" points="226.94,-47.62 223.44,-37.62 219.94,-47.62 226.94,-47.62"/>
</g>
<!-- 3 -->
<g id="node8" class="node">
<title>3</title>
<ellipse fill="#fff2cc" stroke="#d6b656" cx="295.44" cy="-18" rx="27" ry="18"/>
<text text-anchor="middle" x="295.44" y="-13.8" font-family="Helvetica,sans-Serif" font-size="14.00">3</text>
</g>
<!-- sp3&#45;&gt;3 -->
<g id="edge7" class="edge">
<title>sp3&#45;&gt;3</title>
<path fill="none" stroke="black" d="M295.44,-71.7C295.44,-64.41 295.44,-55.73 295.44,-47.54"/>
<polygon fill="black" stroke="black" points="298.94,-47.62 295.44,-37.62 291.94,-47.62 298.94,-47.62"/>
</g>
<!-- 4 -->
<g id="node9" class="node">
<title>4</title>
<ellipse fill="#fff2cc" stroke="#d6b656" cx="367.44" cy="-18" rx="27" ry="18"/>
<text text-anchor="middle" x="367.44" y="-13.8" font-family="Helvetica,sans-Serif" font-size="14.00">4</text>
</g>
<!-- sp3&#45;&gt;4 -->
<g id="edge8" class="edge">
<title>sp3&#45;&gt;4</title>
<path fill="none" stroke="black" d="M310.35,-74.5C320.2,-64.92 333.3,-52.19 344.46,-41.34"/>
<polygon fill="black" stroke="black" points="346.72,-44.02 351.45,-34.54 341.84,-39 346.72,-44.02"/>
</g>
</g>
</svg>
