<?xml version="1.0" encoding="UTF-8" standalone="no"?>
<!DOCTYPE svg PUBLIC "-//W3C//DTD SVG 1.1//EN"
 "http://www.w3.org/Graphics/SVG/1.1/DTD/svg11.dtd">
<!-- Generated by graphviz version 10.0.1 (0)
 -->
<!-- Title: G Pages: 1 -->
<svg width="464pt" height="260pt"
 viewBox="0.00 0.00 463.54 260.00" xmlns="http://www.w3.org/2000/svg" xmlns:xlink="http://www.w3.org/1999/xlink">
<g id="graph0" class="graph" transform="scale(1 1) rotate(0) translate(4 256)">
<title>G</title>
<polygon fill="white" stroke="none" points="-4,4 -4,-256 459.54,-256 459.54,4 -4,4"/>
<!-- root -->
<g id="node1" class="node">
<title>root</title>
<ellipse fill="#d5e8d4" stroke="#83b467" cx="176.54" cy="-234" rx="27.68" ry="18"/>
<text text-anchor="middle" x="176.54" y="-229.8" font-family="Helvetica,sans-Serif" font-size="14.00">root</text>
</g>
<!-- rootName -->
<g id="node2" class="node">
<title>rootName</title>
<ellipse fill="#dae8fc" stroke="#7192c2" cx="78.54" cy="-162" rx="53.44" ry="18"/>
<text text-anchor="middle" x="78.54" y="-157.8" font-family="Helvetica,sans-Serif" font-size="14.00">rootName</text>
</g>
<!-- root&#45;&gt;rootName -->
<g id="edge1" class="edge">
<title>root&#45;&gt;rootName</title>
<path fill="none" stroke="black" d="M158.56,-220.16C144.89,-210.39 125.74,-196.72 109.61,-185.19"/>
<polygon fill="black" stroke="black" points="111.92,-182.54 101.75,-179.58 107.85,-188.24 111.92,-182.54"/>
</g>
<!-- p1 -->
<g id="node3" class="node">
<title>p1</title>
<ellipse fill="#d5e8d4" stroke="#83b467" cx="176.54" cy="-162" rx="27" ry="18"/>
<text text-anchor="middle" x="176.54" y="-157.8" font-family="Helvetica,sans-Serif" font-size="14.00">p1</text>
</g>
<!-- root&#45;&gt;p1 -->
<g id="edge2" class="edge">
<title>root&#45;&gt;p1</title>
<path fill="none" stroke="black" d="M176.54,-215.7C176.54,-208.41 176.54,-199.73 176.54,-191.54"/>
<polygon fill="black" stroke="black" points="180.04,-191.62 176.54,-181.62 173.04,-191.62 180.04,-191.62"/>
</g>
<!-- p2 -->
<g id="node11" class="node">
<title>p2</title>
<ellipse fill="#dae8fc" stroke="#7192c2" cx="356.54" cy="-162" rx="27" ry="18"/>
<text text-anchor="middle" x="356.54" y="-157.8" font-family="Helvetica,sans-Serif" font-size="14.00">p2</text>
</g>
<!-- root&#45;&gt;p2 -->
<g id="edge10" class="edge">
<title>root&#45;&gt;p2</title>
<path fill="none" stroke="black" d="M200.07,-223.85C231.51,-211.62 287.38,-189.89 323.16,-175.98"/>
<polygon fill="black" stroke="black" points="324.11,-179.37 332.16,-172.48 321.57,-172.84 324.11,-179.37"/>
</g>
<!-- p1Name -->
<g id="node4" class="node">
<title>p1Name</title>
<ellipse fill="#fff2cc" stroke="#d6b656" cx="47.54" cy="-90" rx="47.54" ry="18"/>
<text text-anchor="middle" x="47.54" y="-85.8" font-family="Helvetica,sans-Serif" font-size="14.00">p1Name</text>
</g>
<!-- p1&#45;&gt;p1Name -->
<g id="edge3" class="edge">
<title>p1&#45;&gt;p1Name</title>
<path fill="none" stroke="black" d="M156.1,-149.91C136.67,-139.36 107.01,-123.27 83.61,-110.57"/>
<polygon fill="black" stroke="black" points="85.47,-107.6 75.01,-105.91 82.13,-113.75 85.47,-107.6"/>
</g>
<!-- sp2 -->
<g id="node5" class="node">
<title>sp2</title>
<ellipse fill="#fff2cc" stroke="#d6b656" cx="140.54" cy="-90" rx="27" ry="18"/>
<text text-anchor="middle" x="140.54" y="-85.8" font-family="Helvetica,sans-Serif" font-size="14.00">sp2</text>
</g>
<!-- p1&#45;&gt;sp2 -->
<g id="edge4" class="edge">
<title>p1&#45;&gt;sp2</title>
<path fill="none" stroke="black" d="M168.19,-144.76C163.96,-136.55 158.73,-126.37 153.96,-117.09"/>
<polygon fill="black" stroke="black" points="157.22,-115.79 149.53,-108.49 151,-118.99 157.22,-115.79"/>
</g>
<!-- sp3 -->
<g id="node8" class="node">
<title>sp3</title>
<ellipse fill="#fff2cc" stroke="#d6b656" cx="212.54" cy="-90" rx="27" ry="18"/>
<text text-anchor="middle" x="212.54" y="-85.8" font-family="Helvetica,sans-Serif" font-size="14.00">sp3</text>
</g>
<!-- p1&#45;&gt;sp3 -->
<g id="edge7" class="edge">
<title>p1&#45;&gt;sp3</title>
<path fill="none" stroke="black" d="M184.89,-144.76C189.11,-136.55 194.35,-126.37 199.12,-117.09"/>
<polygon fill="black" stroke="black" points="202.08,-118.99 203.54,-108.49 195.86,-115.79 202.08,-118.99"/>
</g>
<!-- 1 -->
<g id="node6" class="node">
<title>1</title>
<ellipse fill="#f8cecc" stroke="#bd6460" cx="68.54" cy="-18" rx="27" ry="18"/>
<text text-anchor="middle" x="68.54" y="-13.8" font-family="Helvetica,sans-Serif" font-size="14.00">1</text>
</g>
<!-- sp2&#45;&gt;1 -->
<g id="edge5" class="edge">
<title>sp2&#45;&gt;1</title>
<path fill="none" stroke="black" d="M125.62,-74.5C115.77,-64.92 102.68,-52.19 91.51,-41.34"/>
<polygon fill="black" stroke="black" points="94.13,-39 84.52,-34.54 89.25,-44.02 94.13,-39"/>
</g>
<!-- 2 -->
<g id="node7" class="node">
<title>2</title>
<ellipse fill="#f8cecc" stroke="#bd6460" cx="140.54" cy="-18" rx="27" ry="18"/>
<text text-anchor="middle" x="140.54" y="-13.8" font-family="Helvetica,sans-Serif" font-size="14.00">2</text>
</g>
<!-- sp2&#45;&gt;2 -->
<g id="edge6" class="edge">
<title>sp2&#45;&gt;2</title>
<path fill="none" stroke="black" d="M140.54,-71.7C140.54,-64.41 140.54,-55.73 140.54,-47.54"/>
<polygon fill="black" stroke="black" points="144.04,-47.62 140.54,-37.62 137.04,-47.62 144.04,-47.62"/>
</g>
<!-- 3 -->
<g id="node9" class="node">
<title>3</title>
<ellipse fill="#f8cecc" stroke="#bd6460" cx="212.54" cy="-18" rx="27" ry="18"/>
<text text-anchor="middle" x="212.54" y="-13.8" font-family="Helvetica,sans-Serif" font-size="14.00">3</text>
</g>
<!-- sp3&#45;&gt;3 -->
<g id="edge8" class="edge">
<title>sp3&#45;&gt;3</title>
<path fill="none" stroke="black" d="M212.54,-71.7C212.54,-64.41 212.54,-55.73 212.54,-47.54"/>
<polygon fill="black" stroke="black" points="216.04,-47.62 212.54,-37.62 209.04,-47.62 216.04,-47.62"/>
</g>
<!-- 4 -->
<g id="node10" class="node">
<title>4</title>
<ellipse fill="#f8cecc" stroke="#bd6460" cx="284.54" cy="-18" rx="27" ry="18"/>
<text text-anchor="middle" x="284.54" y="-13.8" font-family="Helvetica,sans-Serif" font-size="14.00">4</text>
</g>
<!-- sp3&#45;&gt;4 -->
<g id="edge9" class="edge">
<title>sp3&#45;&gt;4</title>
<path fill="none" stroke="black" d="M227.46,-74.5C237.3,-64.92 250.4,-52.19 261.56,-41.34"/>
<polygon fill="black" stroke="black" points="263.82,-44.02 268.55,-34.54 258.94,-39 263.82,-44.02"/>
</g>
<!-- ln -->
<g id="node12" class="node">
<title>ln</title>
<ellipse fill="#fff2cc" stroke="#d6b656" cx="356.54" cy="-90" rx="27" ry="18"/>
<text text-anchor="middle" x="356.54" y="-85.8" font-family="Helvetica,sans-Serif" font-size="14.00">ln</text>
</g>
<!-- p2&#45;&gt;ln -->
<g id="edge11" class="edge">
<title>p2&#45;&gt;ln</title>
<path fill="none" stroke="black" d="M356.54,-143.7C356.54,-136.41 356.54,-127.73 356.54,-119.54"/>
<polygon fill="black" stroke="black" points="360.04,-119.62 356.54,-109.62 353.04,-119.62 360.04,-119.62"/>
</g>
<!-- rn -->
<g id="node15" class="node">
<title>rn</title>
<ellipse fill="#fff2cc" stroke="#d6b656" cx="428.54" cy="-90" rx="27" ry="18"/>
<text text-anchor="middle" x="428.54" y="-85.8" font-family="Helvetica,sans-Serif" font-size="14.00">rn</text>
</g>
<!-- p2&#45;&gt;rn -->
<g id="edge14" class="edge">
<title>p2&#45;&gt;rn</title>
<path fill="none" stroke="black" d="M371.46,-146.5C381.3,-136.92 394.4,-124.19 405.56,-113.34"/>
<polygon fill="black" stroke="black" points="407.82,-116.02 412.55,-106.54 402.94,-111 407.82,-116.02"/>
</g>
<!-- 5 -->
<g id="node13" class="node">
<title>5</title>
<ellipse fill="#f8cecc" stroke="#bd6460" cx="356.54" cy="-18" rx="27" ry="18"/>
<text text-anchor="middle" x="356.54" y="-13.8" font-family="Helvetica,sans-Serif" font-size="14.00">5</text>
</g>
<!-- ln&#45;&gt;5 -->
<g id="edge12" class="edge">
<title>ln&#45;&gt;5</title>
<path fill="none" stroke="black" d="M356.54,-71.7C356.54,-64.41 356.54,-55.73 356.54,-47.54"/>
<polygon fill="black" stroke="black" points="360.04,-47.62 356.54,-37.62 353.04,-47.62 360.04,-47.62"/>
</g>
<!-- 6 -->
<g id="node14" class="node">
<title>6</title>
<ellipse fill="#f8cecc" stroke="#bd6460" cx="428.54" cy="-18" rx="27" ry="18"/>
<text text-anchor="middle" x="428.54" y="-13.8" font-family="Helvetica,sans-Serif" font-size="14.00">6</text>
</g>
<!-- ln&#45;&gt;6 -->
<g id="edge13" class="edge">
<title>ln&#45;&gt;6</title>
<path fill="none" stroke="black" d="M371.46,-74.5C381.3,-64.92 394.4,-52.19 405.56,-41.34"/>
<polygon fill="black" stroke="black" points="407.82,-44.02 412.55,-34.54 402.94,-39 407.82,-44.02"/>
</g>
</g>
</svg>
