<?xml version="1.0" encoding="UTF-8" standalone="no"?>
<!DOCTYPE svg PUBLIC "-//W3C//DTD SVG 1.1//EN"
 "http://www.w3.org/Graphics/SVG/1.1/DTD/svg11.dtd">
<!-- Generated by graphviz version 10.0.1 (0)
 -->
<!-- Title: G Pages: 1 -->
<svg width="396pt" height="188pt"
 viewBox="0.00 0.00 395.65 188.00" xmlns="http://www.w3.org/2000/svg" xmlns:xlink="http://www.w3.org/1999/xlink">
<g id="graph0" class="graph" transform="scale(1 1) rotate(0) translate(4 184)">
<title>G</title>
<polygon fill="white" stroke="none" points="-4,4 -4,-184 391.65,-184 391.65,4 -4,4"/>
<!-- root -->
<g id="node1" class="node">
<title>root</title>
<ellipse fill="none" stroke="black" cx="180.65" cy="-162" rx="27" ry="18"/>
<text text-anchor="middle" x="180.65" y="-157.8" font-family="Times,serif" font-size="14.00">root</text>
</g>
<!-- rootName -->
<g id="node2" class="node">
<title>rootName</title>
<ellipse fill="none" stroke="black" cx="49.65" cy="-90" rx="49.65" ry="18"/>
<text text-anchor="middle" x="49.65" y="-85.8" font-family="Times,serif" font-size="14.00">rootName</text>
</g>
<!-- root&#45;&gt;rootName -->
<g id="edge1" class="edge">
<title>root&#45;&gt;rootName</title>
<path fill="none" stroke="black" d="M159.89,-149.91C140.29,-139.43 110.43,-123.48 86.73,-110.81"/>
<polygon fill="black" stroke="black" points="88.47,-107.78 78,-106.15 85.17,-113.95 88.47,-107.78"/>
</g>
<!-- p1 -->
<g id="node3" class="node">
<title>p1</title>
<ellipse fill="none" stroke="black" cx="144.65" cy="-90" rx="27" ry="18"/>
<text text-anchor="middle" x="144.65" y="-85.8" font-family="Times,serif" font-size="14.00">p1</text>
</g>
<!-- root&#45;&gt;p1 -->
<g id="edge2" class="edge">
<title>root&#45;&gt;p1</title>
<path fill="none" stroke="black" d="M172.3,-144.76C168.07,-136.55 162.84,-126.37 158.07,-117.09"/>
<polygon fill="black" stroke="black" points="161.33,-115.79 153.65,-108.49 155.11,-118.99 161.33,-115.79"/>
</g>
<!-- sp2 -->
<g id="node4" class="node">
<title>sp2</title>
<ellipse fill="none" stroke="black" cx="216.65" cy="-90" rx="27" ry="18"/>
<text text-anchor="middle" x="216.65" y="-85.8" font-family="Times,serif" font-size="14.00">sp2</text>
</g>
<!-- root&#45;&gt;sp2 -->
<g id="edge3" class="edge">
<title>root&#45;&gt;sp2</title>
<path fill="none" stroke="black" d="M189,-144.76C193.23,-136.55 198.46,-126.37 203.23,-117.09"/>
<polygon fill="black" stroke="black" points="206.19,-118.99 207.65,-108.49 199.97,-115.79 206.19,-118.99"/>
</g>
<!-- sp3 -->
<g id="node7" class="node">
<title>sp3</title>
<ellipse fill="none" stroke="black" cx="288.65" cy="-90" rx="27" ry="18"/>
<text text-anchor="middle" x="288.65" y="-85.8" font-family="Times,serif" font-size="14.00">sp3</text>
</g>
<!-- root&#45;&gt;sp3 -->
<g id="edge6" class="edge">
<title>root&#45;&gt;sp3</title>
<path fill="none" stroke="black" d="M199.46,-148.81C216.24,-137.93 241.04,-121.86 260.24,-109.42"/>
<polygon fill="black" stroke="black" points="261.93,-112.49 268.42,-104.11 258.13,-106.61 261.93,-112.49"/>
</g>
<!-- 1 -->
<g id="node5" class="node">
<title>1</title>
<ellipse fill="none" stroke="black" cx="144.65" cy="-18" rx="27" ry="18"/>
<text text-anchor="middle" x="144.65" y="-13.8" font-family="Times,serif" font-size="14.00">1</text>
</g>
<!-- sp2&#45;&gt;1 -->
<g id="edge4" class="edge">
<title>sp2&#45;&gt;1</title>
<path fill="none" stroke="black" d="M201.73,-74.5C191.88,-64.92 178.79,-52.19 167.62,-41.34"/>
<polygon fill="black" stroke="black" points="170.24,-39 160.63,-34.54 165.36,-44.02 170.24,-39"/>
</g>
<!-- 2 -->
<g id="node6" class="node">
<title>2</title>
<ellipse fill="none" stroke="black" cx="216.65" cy="-18" rx="27" ry="18"/>
<text text-anchor="middle" x="216.65" y="-13.8" font-family="Times,serif" font-size="14.00">2</text>
</g>
<!-- sp2&#45;&gt;2 -->
<g id="edge5" class="edge">
<title>sp2&#45;&gt;2</title>
<path fill="none" stroke="black" d="M216.65,-71.7C216.65,-64.41 216.65,-55.73 216.65,-47.54"/>
<polygon fill="black" stroke="black" points="220.15,-47.62 216.65,-37.62 213.15,-47.62 220.15,-47.62"/>
</g>
<!-- 3 -->
<g id="node8" class="node">
<title>3</title>
<ellipse fill="none" stroke="black" cx="288.65" cy="-18" rx="27" ry="18"/>
<text text-anchor="middle" x="288.65" y="-13.8" font-family="Times,serif" font-size="14.00">3</text>
</g>
<!-- sp3&#45;&gt;3 -->
<g id="edge7" class="edge">
<title>sp3&#45;&gt;3</title>
<path fill="none" stroke="black" d="M288.65,-71.7C288.65,-64.41 288.65,-55.73 288.65,-47.54"/>
<polygon fill="black" stroke="black" points="292.15,-47.62 288.65,-37.62 285.15,-47.62 292.15,-47.62"/>
</g>
<!-- 4 -->
<g id="node9" class="node">
<title>4</title>
<ellipse fill="none" stroke="black" cx="360.65" cy="-18" rx="27" ry="18"/>
<text text-anchor="middle" x="360.65" y="-13.8" font-family="Times,serif" font-size="14.00">4</text>
</g>
<!-- sp3&#45;&gt;4 -->
<g id="edge8" class="edge">
<title>sp3&#45;&gt;4</title>
<path fill="none" stroke="black" d="M303.57,-74.5C313.42,-64.92 326.51,-52.19 337.68,-41.34"/>
<polygon fill="black" stroke="black" points="339.94,-44.02 344.67,-34.54 335.06,-39 339.94,-44.02"/>
</g>
</g>
</svg>
