<?xml version="1.0" encoding="UTF-8" standalone="no"?>
<!DOCTYPE svg PUBLIC "-//W3C//DTD SVG 1.1//EN"
 "http://www.w3.org/Graphics/SVG/1.1/DTD/svg11.dtd">
<!-- Generated by graphviz version 10.0.1 (0)
 -->
<!-- Title: G Pages: 1 -->
<svg width="316pt" height="279pt"
 viewBox="0.00 0.00 316.20 278.80" xmlns="http://www.w3.org/2000/svg" xmlns:xlink="http://www.w3.org/1999/xlink">
<g id="graph0" class="graph" transform="scale(1 1) rotate(0) translate(4 274.8)">
<title>G</title>
<polygon fill="white" stroke="none" points="-4,4 -4,-274.8 312.2,-274.8 312.2,4 -4,4"/>
<!-- root -->
<g id="node1" class="node">
<title>root</title>
<ellipse fill="none" stroke="black" cx="172.2" cy="-252.8" rx="27" ry="18"/>
<text text-anchor="middle" x="172.2" y="-248.6" font-family="Times,serif" font-size="14.00">root</text>
</g>
<!-- p2 -->
<g id="node2" class="node">
<title>p2</title>
<ellipse fill="none" stroke="black" cx="137.2" cy="-179.8" rx="27" ry="18"/>
<text text-anchor="middle" x="137.2" y="-175.6" font-family="Times,serif" font-size="14.00">p2</text>
</g>
<!-- root&#45;&gt;p2 -->
<g id="edge1" class="edge">
<title>root&#45;&gt;p2</title>
<path fill="none" stroke="black" d="M164.09,-235.33C159.98,-227 154.89,-216.68 150.25,-207.27"/>
<polygon fill="black" stroke="black" points="153.51,-205.96 145.95,-198.54 147.23,-209.05 153.51,-205.96"/>
</g>
<!-- p3 -->
<g id="node7" class="node">
<title>p3</title>
<ellipse fill="none" stroke="black" cx="209.2" cy="-179.8" rx="27" ry="18"/>
<text text-anchor="middle" x="209.2" y="-175.6" font-family="Times,serif" font-size="14.00">p3</text>
</g>
<!-- root&#45;&gt;p3 -->
<g id="edge6" class="edge">
<title>root&#45;&gt;p3</title>
<path fill="none" stroke="black" d="M180.79,-235.33C185.13,-227 190.51,-216.68 195.41,-207.27"/>
<polygon fill="black" stroke="black" points="198.45,-209.01 199.97,-198.52 192.25,-205.77 198.45,-209.01"/>
</g>
<!-- ln -->
<g id="node3" class="node">
<title>ln</title>
<ellipse fill="none" stroke="black" cx="65.2" cy="-106.8" rx="27" ry="18"/>
<text text-anchor="middle" x="65.2" y="-102.6" font-family="Times,serif" font-size="14.00">ln</text>
</g>
<!-- p2&#45;&gt;ln -->
<g id="edge2" class="edge">
<title>p2&#45;&gt;ln</title>
<path fill="none" stroke="black" d="M122.63,-164.43C112.75,-154.68 99.47,-141.58 88.17,-130.44"/>
<polygon fill="black" stroke="black" points="90.66,-127.98 81.08,-123.45 85.74,-132.97 90.66,-127.98"/>
</g>
<!-- rn -->
<g id="node6" class="node">
<title>rn</title>
<ellipse fill="none" stroke="black" cx="137.2" cy="-106.8" rx="27" ry="18"/>
<text text-anchor="middle" x="137.2" y="-102.6" font-family="Times,serif" font-size="14.00">rn</text>
</g>
<!-- p2&#45;&gt;rn -->
<g id="edge5" class="edge">
<title>p2&#45;&gt;rn</title>
<path fill="none" stroke="black" d="M137.2,-161.61C137.2,-154.03 137.2,-144.9 137.2,-136.34"/>
<polygon fill="black" stroke="black" points="140.71,-136.34 137.2,-126.34 133.71,-136.34 140.71,-136.34"/>
</g>
<!-- ln_5 -->
<g id="node4" class="node">
<title>ln_5</title>
<ellipse fill="none" stroke="black" cx="28.2" cy="-18" rx="28.2" ry="18"/>
<text text-anchor="middle" x="28.2" y="-13.8" font-family="Times,serif" font-size="14.00">ln_5</text>
</g>
<!-- ln&#45;&gt;ln_5 -->
<g id="edge3" class="edge">
<title>ln&#45;&gt;ln_5</title>
<path fill="none" stroke="black" d="M58.07,-89.06C52.9,-76.94 45.8,-60.27 39.82,-46.24"/>
<polygon fill="black" stroke="black" points="43.05,-44.9 35.91,-37.08 36.61,-47.65 43.05,-44.9"/>
<text text-anchor="middle" x="53.7" y="-58.2" font-family="Times,serif" font-size="14.00">5</text>
</g>
<!-- ln_6 -->
<g id="node5" class="node">
<title>ln_6</title>
<ellipse fill="none" stroke="black" cx="102.2" cy="-18" rx="28.2" ry="18"/>
<text text-anchor="middle" x="102.2" y="-13.8" font-family="Times,serif" font-size="14.00">ln_6</text>
</g>
<!-- ln&#45;&gt;ln_6 -->
<g id="edge4" class="edge">
<title>ln&#45;&gt;ln_6</title>
<path fill="none" stroke="black" d="M72.34,-89.06C77.51,-76.94 84.61,-60.27 90.59,-46.24"/>
<polygon fill="black" stroke="black" points="93.8,-47.65 94.5,-37.08 87.36,-44.9 93.8,-47.65"/>
<text text-anchor="middle" x="90.7" y="-58.2" font-family="Times,serif" font-size="14.00">6</text>
</g>
<!-- ln2 -->
<g id="node8" class="node">
<title>ln2</title>
<ellipse fill="none" stroke="black" cx="209.2" cy="-106.8" rx="27" ry="18"/>
<text text-anchor="middle" x="209.2" y="-102.6" font-family="Times,serif" font-size="14.00">ln2</text>
</g>
<!-- p3&#45;&gt;ln2 -->
<g id="edge7" class="edge">
<title>p3&#45;&gt;ln2</title>
<path fill="none" stroke="black" d="M209.2,-161.61C209.2,-154.03 209.2,-144.9 209.2,-136.34"/>
<polygon fill="black" stroke="black" points="212.71,-136.34 209.2,-126.34 205.71,-136.34 212.71,-136.34"/>
</g>
<!-- rn2 -->
<g id="node9" class="node">
<title>rn2</title>
<ellipse fill="none" stroke="black" cx="281.2" cy="-106.8" rx="27" ry="18"/>
<text text-anchor="middle" x="281.2" y="-102.6" font-family="Times,serif" font-size="14.00">rn2</text>
</g>
<!-- p3&#45;&gt;rn2 -->
<g id="edge8" class="edge">
<title>p3&#45;&gt;rn2</title>
<path fill="none" stroke="black" d="M223.78,-164.43C233.66,-154.68 246.94,-141.58 258.24,-130.44"/>
<polygon fill="black" stroke="black" points="260.67,-132.97 265.33,-123.45 255.75,-127.98 260.67,-132.97"/>
</g>
</g>
</svg>
