<?xml version="1.0" encoding="UTF-8" standalone="no"?>
<!DOCTYPE svg PUBLIC "-//W3C//DTD SVG 1.1//EN"
 "http://www.w3.org/Graphics/SVG/1.1/DTD/svg11.dtd">
<!-- Generated by graphviz version 10.0.1 (0)
 -->
<!-- Title: G Pages: 1 -->
<svg width="456pt" height="260pt"
 viewBox="0.00 0.00 455.75 260.00" xmlns="http://www.w3.org/2000/svg" xmlns:xlink="http://www.w3.org/1999/xlink">
<g id="graph0" class="graph" transform="scale(1 1) rotate(0) translate(4 256)">
<title>G</title>
<polygon fill="white" stroke="none" points="-4,4 -4,-256 451.75,-256 451.75,4 -4,4"/>
<!-- root -->
<g id="node1" class="node">
<title>root</title>
<ellipse fill="none" stroke="black" cx="168.75" cy="-234" rx="27" ry="18"/>
<text text-anchor="middle" x="168.75" y="-229.8" font-family="Times,serif" font-size="14.00">root</text>
</g>
<!-- rootName -->
<g id="node2" class="node">
<title>rootName</title>
<ellipse fill="none" stroke="black" cx="73.75" cy="-162" rx="49.65" ry="18"/>
<text text-anchor="middle" x="73.75" y="-157.8" font-family="Times,serif" font-size="14.00">rootName</text>
</g>
<!-- root&#45;&gt;rootName -->
<g id="edge1" class="edge">
<title>root&#45;&gt;rootName</title>
<path fill="none" stroke="black" d="M151.33,-220.16C138.2,-210.49 119.86,-196.97 104.31,-185.51"/>
<polygon fill="black" stroke="black" points="106.4,-182.71 96.27,-179.6 102.25,-188.35 106.4,-182.71"/>
</g>
<!-- p1 -->
<g id="node3" class="node">
<title>p1</title>
<ellipse fill="none" stroke="black" cx="168.75" cy="-162" rx="27" ry="18"/>
<text text-anchor="middle" x="168.75" y="-157.8" font-family="Times,serif" font-size="14.00">p1</text>
</g>
<!-- root&#45;&gt;p1 -->
<g id="edge2" class="edge">
<title>root&#45;&gt;p1</title>
<path fill="none" stroke="black" d="M168.75,-215.7C168.75,-208.41 168.75,-199.73 168.75,-191.54"/>
<polygon fill="black" stroke="black" points="172.25,-191.62 168.75,-181.62 165.25,-191.62 172.25,-191.62"/>
</g>
<!-- p2 -->
<g id="node11" class="node">
<title>p2</title>
<ellipse fill="none" stroke="black" cx="348.75" cy="-162" rx="27" ry="18"/>
<text text-anchor="middle" x="348.75" y="-157.8" font-family="Times,serif" font-size="14.00">p2</text>
</g>
<!-- root&#45;&gt;p2 -->
<g id="edge10" class="edge">
<title>root&#45;&gt;p2</title>
<path fill="none" stroke="black" d="M191.55,-224.13C222.84,-211.97 279.31,-190 315.37,-175.98"/>
<polygon fill="black" stroke="black" points="316.39,-179.34 324.45,-172.45 313.86,-172.81 316.39,-179.34"/>
</g>
<!-- p1Name -->
<g id="node4" class="node">
<title>p1Name</title>
<ellipse fill="none" stroke="black" cx="43.75" cy="-90" rx="43.75" ry="18"/>
<text text-anchor="middle" x="43.75" y="-85.8" font-family="Times,serif" font-size="14.00">p1Name</text>
</g>
<!-- p1&#45;&gt;p1Name -->
<g id="edge3" class="edge">
<title>p1&#45;&gt;p1Name</title>
<path fill="none" stroke="black" d="M148.39,-149.6C129.55,-139.05 101.16,-123.15 78.69,-110.57"/>
<polygon fill="black" stroke="black" points="80.6,-107.63 70.17,-105.79 77.18,-113.73 80.6,-107.63"/>
</g>
<!-- sp2 -->
<g id="node5" class="node">
<title>sp2</title>
<ellipse fill="none" stroke="black" cx="132.75" cy="-90" rx="27" ry="18"/>
<text text-anchor="middle" x="132.75" y="-85.8" font-family="Times,serif" font-size="14.00">sp2</text>
</g>
<!-- p1&#45;&gt;sp2 -->
<g id="edge4" class="edge">
<title>p1&#45;&gt;sp2</title>
<path fill="none" stroke="black" d="M160.4,-144.76C156.18,-136.55 150.94,-126.37 146.17,-117.09"/>
<polygon fill="black" stroke="black" points="149.43,-115.79 141.75,-108.49 143.21,-118.99 149.43,-115.79"/>
</g>
<!-- sp3 -->
<g id="node8" class="node">
<title>sp3</title>
<ellipse fill="none" stroke="black" cx="204.75" cy="-90" rx="27" ry="18"/>
<text text-anchor="middle" x="204.75" y="-85.8" font-family="Times,serif" font-size="14.00">sp3</text>
</g>
<!-- p1&#45;&gt;sp3 -->
<g id="edge7" class="edge">
<title>p1&#45;&gt;sp3</title>
<path fill="none" stroke="black" d="M177.1,-144.76C181.33,-136.55 186.56,-126.37 191.33,-117.09"/>
<polygon fill="black" stroke="black" points="194.29,-118.99 195.75,-108.49 188.07,-115.79 194.29,-118.99"/>
</g>
<!-- 1 -->
<g id="node6" class="node">
<title>1</title>
<ellipse fill="none" stroke="black" cx="60.75" cy="-18" rx="27" ry="18"/>
<text text-anchor="middle" x="60.75" y="-13.8" font-family="Times,serif" font-size="14.00">1</text>
</g>
<!-- sp2&#45;&gt;1 -->
<g id="edge5" class="edge">
<title>sp2&#45;&gt;1</title>
<path fill="none" stroke="black" d="M117.83,-74.5C107.99,-64.92 94.89,-52.19 83.73,-41.34"/>
<polygon fill="black" stroke="black" points="86.35,-39 76.74,-34.54 81.47,-44.02 86.35,-39"/>
</g>
<!-- 2 -->
<g id="node7" class="node">
<title>2</title>
<ellipse fill="none" stroke="black" cx="132.75" cy="-18" rx="27" ry="18"/>
<text text-anchor="middle" x="132.75" y="-13.8" font-family="Times,serif" font-size="14.00">2</text>
</g>
<!-- sp2&#45;&gt;2 -->
<g id="edge6" class="edge">
<title>sp2&#45;&gt;2</title>
<path fill="none" stroke="black" d="M132.75,-71.7C132.75,-64.41 132.75,-55.73 132.75,-47.54"/>
<polygon fill="black" stroke="black" points="136.25,-47.62 132.75,-37.62 129.25,-47.62 136.25,-47.62"/>
</g>
<!-- 3 -->
<g id="node9" class="node">
<title>3</title>
<ellipse fill="none" stroke="black" cx="204.75" cy="-18" rx="27" ry="18"/>
<text text-anchor="middle" x="204.75" y="-13.8" font-family="Times,serif" font-size="14.00">3</text>
</g>
<!-- sp3&#45;&gt;3 -->
<g id="edge8" class="edge">
<title>sp3&#45;&gt;3</title>
<path fill="none" stroke="black" d="M204.75,-71.7C204.75,-64.41 204.75,-55.73 204.75,-47.54"/>
<polygon fill="black" stroke="black" points="208.25,-47.62 204.75,-37.62 201.25,-47.62 208.25,-47.62"/>
</g>
<!-- 4 -->
<g id="node10" class="node">
<title>4</title>
<ellipse fill="none" stroke="black" cx="276.75" cy="-18" rx="27" ry="18"/>
<text text-anchor="middle" x="276.75" y="-13.8" font-family="Times,serif" font-size="14.00">4</text>
</g>
<!-- sp3&#45;&gt;4 -->
<g id="edge9" class="edge">
<title>sp3&#45;&gt;4</title>
<path fill="none" stroke="black" d="M219.67,-74.5C229.52,-64.92 242.61,-52.19 253.78,-41.34"/>
<polygon fill="black" stroke="black" points="256.04,-44.02 260.77,-34.54 251.16,-39 256.04,-44.02"/>
</g>
<!-- ln -->
<g id="node12" class="node">
<title>ln</title>
<ellipse fill="none" stroke="black" cx="348.75" cy="-90" rx="27" ry="18"/>
<text text-anchor="middle" x="348.75" y="-85.8" font-family="Times,serif" font-size="14.00">ln</text>
</g>
<!-- p2&#45;&gt;ln -->
<g id="edge11" class="edge">
<title>p2&#45;&gt;ln</title>
<path fill="none" stroke="black" d="M348.75,-143.7C348.75,-136.41 348.75,-127.73 348.75,-119.54"/>
<polygon fill="black" stroke="black" points="352.25,-119.62 348.75,-109.62 345.25,-119.62 352.25,-119.62"/>
</g>
<!-- rn -->
<g id="node15" class="node">
<title>rn</title>
<ellipse fill="none" stroke="black" cx="420.75" cy="-90" rx="27" ry="18"/>
<text text-anchor="middle" x="420.75" y="-85.8" font-family="Times,serif" font-size="14.00">rn</text>
</g>
<!-- p2&#45;&gt;rn -->
<g id="edge14" class="edge">
<title>p2&#45;&gt;rn</title>
<path fill="none" stroke="black" d="M363.67,-146.5C373.52,-136.92 386.61,-124.19 397.78,-113.34"/>
<polygon fill="black" stroke="black" points="400.04,-116.02 404.77,-106.54 395.16,-111 400.04,-116.02"/>
</g>
<!-- 5 -->
<g id="node13" class="node">
<title>5</title>
<ellipse fill="none" stroke="black" cx="348.75" cy="-18" rx="27" ry="18"/>
<text text-anchor="middle" x="348.75" y="-13.8" font-family="Times,serif" font-size="14.00">5</text>
</g>
<!-- ln&#45;&gt;5 -->
<g id="edge12" class="edge">
<title>ln&#45;&gt;5</title>
<path fill="none" stroke="black" d="M348.75,-71.7C348.75,-64.41 348.75,-55.73 348.75,-47.54"/>
<polygon fill="black" stroke="black" points="352.25,-47.62 348.75,-37.62 345.25,-47.62 352.25,-47.62"/>
</g>
<!-- 6 -->
<g id="node14" class="node">
<title>6</title>
<ellipse fill="none" stroke="black" cx="420.75" cy="-18" rx="27" ry="18"/>
<text text-anchor="middle" x="420.75" y="-13.8" font-family="Times,serif" font-size="14.00">6</text>
</g>
<!-- ln&#45;&gt;6 -->
<g id="edge13" class="edge">
<title>ln&#45;&gt;6</title>
<path fill="none" stroke="black" d="M363.67,-74.5C373.52,-64.92 386.61,-52.19 397.78,-41.34"/>
<polygon fill="black" stroke="black" points="400.04,-44.02 404.77,-34.54 395.16,-39 400.04,-44.02"/>
</g>
</g>
</svg>
