<?xml version="1.0" encoding="UTF-8" standalone="no"?>
<!DOCTYPE svg PUBLIC "-//W3C//DTD SVG 1.1//EN"
 "http://www.w3.org/Graphics/SVG/1.1/DTD/svg11.dtd">
<!-- Generated by graphviz version 10.0.1 (0)
 -->
<!-- Title: G Pages: 1 -->
<svg width="278pt" height="188pt"
 viewBox="0.00 0.00 278.00 188.00" xmlns="http://www.w3.org/2000/svg" xmlns:xlink="http://www.w3.org/1999/xlink">
<g id="graph0" class="graph" transform="scale(1 1) rotate(0) translate(4 184)">
<title>G</title>
<polygon fill="white" stroke="none" points="-4,4 -4,-184 274,-184 274,4 -4,4"/>
<!-- root -->
<g id="node1" class="node">
<title>root</title>
<ellipse fill="none" stroke="black" cx="135" cy="-162" rx="27" ry="18"/>
<text text-anchor="middle" x="135" y="-157.8" font-family="Times,serif" font-size="14.00">root</text>
</g>
<!-- 1 -->
<g id="node2" class="node">
<title>1</title>
<ellipse fill="none" stroke="black" cx="27" cy="-90" rx="27" ry="18"/>
<text text-anchor="middle" x="27" y="-85.8" font-family="Times,serif" font-size="14.00">1</text>
</g>
<!-- root&#45;&gt;1 -->
<g id="edge1" class="edge">
<title>root&#45;&gt;1</title>
<path fill="none" stroke="black" d="M116.19,-148.81C99.41,-137.93 74.61,-121.86 55.41,-109.42"/>
<polygon fill="black" stroke="black" points="57.52,-106.61 47.23,-104.11 53.72,-112.49 57.52,-106.61"/>
</g>
<!-- secondParent -->
<g id="node3" class="node">
<title>secondParent</title>
<ellipse fill="none" stroke="black" cx="135" cy="-90" rx="62.52" ry="18"/>
<text text-anchor="middle" x="135" y="-85.8" font-family="Times,serif" font-size="14.00">secondParent</text>
</g>
<!-- root&#45;&gt;secondParent -->
<g id="edge2" class="edge">
<title>root&#45;&gt;secondParent</title>
<path fill="none" stroke="black" d="M135,-143.7C135,-136.41 135,-127.73 135,-119.54"/>
<polygon fill="black" stroke="black" points="138.5,-119.62 135,-109.62 131.5,-119.62 138.5,-119.62"/>
</g>
<!-- 4 -->
<g id="node6" class="node">
<title>4</title>
<ellipse fill="none" stroke="black" cx="243" cy="-90" rx="27" ry="18"/>
<text text-anchor="middle" x="243" y="-85.8" font-family="Times,serif" font-size="14.00">4</text>
</g>
<!-- root&#45;&gt;4 -->
<g id="edge5" class="edge">
<title>root&#45;&gt;4</title>
<path fill="none" stroke="black" d="M153.81,-148.81C170.59,-137.93 195.39,-121.86 214.59,-109.42"/>
<polygon fill="black" stroke="black" points="216.28,-112.49 222.77,-104.11 212.48,-106.61 216.28,-112.49"/>
</g>
<!-- 2 -->
<g id="node4" class="node">
<title>2</title>
<ellipse fill="none" stroke="black" cx="99" cy="-18" rx="27" ry="18"/>
<text text-anchor="middle" x="99" y="-13.8" font-family="Times,serif" font-size="14.00">2</text>
</g>
<!-- secondParent&#45;&gt;2 -->
<g id="edge3" class="edge">
<title>secondParent&#45;&gt;2</title>
<path fill="none" stroke="black" d="M126.1,-71.7C122.02,-63.75 117.08,-54.16 112.55,-45.34"/>
<polygon fill="black" stroke="black" points="115.68,-43.78 108,-36.49 109.46,-46.98 115.68,-43.78"/>
</g>
<!-- 3 -->
<g id="node5" class="node">
<title>3</title>
<ellipse fill="none" stroke="black" cx="171" cy="-18" rx="27" ry="18"/>
<text text-anchor="middle" x="171" y="-13.8" font-family="Times,serif" font-size="14.00">3</text>
</g>
<!-- secondParent&#45;&gt;3 -->
<g id="edge4" class="edge">
<title>secondParent&#45;&gt;3</title>
<path fill="none" stroke="black" d="M143.9,-71.7C147.98,-63.75 152.92,-54.16 157.45,-45.34"/>
<polygon fill="black" stroke="black" points="160.54,-46.98 162,-36.49 154.32,-43.78 160.54,-46.98"/>
</g>
</g>
</svg>
