<?xml version="1.0" encoding="UTF-8" standalone="no"?>
<!DOCTYPE svg PUBLIC "-//W3C//DTD SVG 1.1//EN" "http://www.w3.org/Graphics/SVG/1.1/DTD/svg11.dtd">
<!-- Generated by graphviz version 10.0.1 (0)
 -->
<!-- Title: G Pages: 1 -->
<svg
  width="375pt"
  height="310pt"
  viewBox="0.00 0.00 375.24 310.40"
  xmlns="http://www.w3.org/2000/svg"
  xmlns:xlink="http://www.w3.org/1999/xlink">
  <g
    id="graph0"
    class="graph"
    transform="scale(1 1) rotate(0) translate(4 306.4)">
    <title>G</title>
    <polygon
      fill="white"
      stroke="none"
      points="-4,4 -4,-306.4 371.24,-306.4 371.24,4 -4,4" />
    <!-- root -->
    <g id="node1" class="node">
      <title>root</title>
      <ellipse
        fill="none"
        stroke="black"
        cx="185.03"
        cy="-284.4"
        rx="27"
        ry="18" />
      <text
        text-anchor="middle"
        x="185.03"
        y="-280.2"
        font-family="Times,serif"
        font-size="14.00">
        root
      </text>
    </g>
    <!-- root_rootName -->
    <g id="node2" class="node">
      <title>root_rootName</title>
      <ellipse
        fill="none"
        stroke="black"
        cx="70.03"
        cy="-195.6"
        rx="70.03"
        ry="18" />
      <text
        text-anchor="middle"
        x="70.03"
        y="-191.4"
        font-family="Times,serif"
        font-size="14.00">
        root_rootName
      </text>
    </g>
    <!-- root&#45;&gt;root_rootName -->
    <g id="edge1" class="edge">
      <title>root&#45;&gt;root_rootName</title>
      <path
        fill="none"
        stroke="black"
        d="M164.04,-272.68C152.18,-266.25 137.32,-257.57 125.05,-248.4 114.27,-240.34 103.3,-230.42 94.01,-221.43" />
      <polygon
        fill="black"
        stroke="black"
        points="96.66,-219.13 87.09,-214.58 91.73,-224.1 96.66,-219.13" />
      <text
        text-anchor="middle"
        x="154.02"
        y="-235.8"
        font-family="Times,serif"
        font-size="14.00">
        rootName
      </text>
    </g>
    <!-- p1 -->
    <g id="node3" class="node">
      <title>p1</title>
      <ellipse
        fill="none"
        stroke="black"
        cx="185.03"
        cy="-195.6"
        rx="27"
        ry="18" />
      <text
        text-anchor="middle"
        x="185.03"
        y="-191.4"
        font-family="Times,serif"
        font-size="14.00">
        p1
      </text>
    </g>
    <!-- root&#45;&gt;p1 -->
    <g id="edge2" class="edge">
      <title>root&#45;&gt;p1</title>
      <path
        fill="none"
        stroke="black"
        d="M185.03,-266.25C185.03,-254.56 185.03,-238.79 185.03,-225.22" />
      <polygon
        fill="black"
        stroke="black"
        points="188.53,-225.52 185.03,-215.52 181.53,-225.52 188.53,-225.52" />
    </g>
    <!-- p2 -->
    <g id="node8" class="node">
      <title>p2</title>
      <ellipse
        fill="none"
        stroke="black"
        cx="265.03"
        cy="-195.6"
        rx="27"
        ry="18" />
      <text
        text-anchor="middle"
        x="265.03"
        y="-191.4"
        font-family="Times,serif"
        font-size="14.00">
        p2
      </text>
    </g>
    <!-- root&#45;&gt;p2 -->
    <g id="edge7" class="edge">
      <title>root&#45;&gt;p2</title>
      <path
        fill="none"
        stroke="black"
        d="M198.61,-268.68C211.02,-255.21 229.58,-235.07 243.92,-219.5" />
      <polygon
        fill="black"
        stroke="black"
        points="246.17,-222.23 250.37,-212.51 241.02,-217.49 246.17,-222.23" />
    </g>
    <!-- p1_p1Name -->
    <g id="node4" class="node">
      <title>p1_p1Name</title>
      <ellipse
        fill="none"
        stroke="black"
        cx="82.03"
        cy="-106.8"
        rx="58.24"
        ry="18" />
      <text
        text-anchor="middle"
        x="82.03"
        y="-102.6"
        font-family="Times,serif"
        font-size="14.00">
        p1_p1Name
      </text>
    </g>
    <!-- p1&#45;&gt;p1_p1Name -->
    <g id="edge3" class="edge">
      <title>p1&#45;&gt;p1_p1Name</title>
      <path
        fill="none"
        stroke="black"
        d="M165.85,-182.79C155.9,-176.36 143.75,-168.01 133.61,-159.6 123.69,-151.37 113.53,-141.52 104.87,-132.63" />
      <polygon
        fill="black"
        stroke="black"
        points="107.57,-130.39 98.14,-125.58 102.51,-135.23 107.57,-130.39" />
      <text
        text-anchor="middle"
        x="157.75"
        y="-147"
        font-family="Times,serif"
        font-size="14.00">
        p1Name
      </text>
    </g>
    <!-- sp2 -->
    <g id="node5" class="node">
      <title>sp2</title>
      <ellipse
        fill="none"
        stroke="black"
        cx="185.03"
        cy="-106.8"
        rx="27"
        ry="18" />
      <text
        text-anchor="middle"
        x="185.03"
        y="-102.6"
        font-family="Times,serif"
        font-size="14.00">
        sp2
      </text>
    </g>
    <!-- p1&#45;&gt;sp2 -->
    <g id="edge4" class="edge">
      <title>p1&#45;&gt;sp2</title>
      <path
        fill="none"
        stroke="black"
        d="M185.03,-177.45C185.03,-165.76 185.03,-149.99 185.03,-136.42" />
      <polygon
        fill="black"
        stroke="black"
        points="188.53,-136.72 185.03,-126.72 181.53,-136.72 188.53,-136.72" />
    </g>
    <!-- sp2_1 -->
    <g id="node6" class="node">
      <title>sp2_1</title>
      <ellipse
        fill="none"
        stroke="black"
        cx="99.03"
        cy="-18"
        rx="34.11"
        ry="18" />
      <text
        text-anchor="middle"
        x="99.03"
        y="-13.8"
        font-family="Times,serif"
        font-size="14.00">
        sp2_1
      </text>
    </g>
    <!-- sp2&#45;&gt;sp2_1 -->
    <g id="edge5" class="edge">
      <title>sp2&#45;&gt;sp2_1</title>
      <path
        fill="none"
        stroke="black"
        d="M170.83,-91.47C157.71,-78.22 137.97,-58.29 122.5,-42.68" />
      <polygon
        fill="black"
        stroke="black"
        points="125.01,-40.24 115.48,-35.6 120.04,-45.17 125.01,-40.24" />
      <text
        text-anchor="middle"
        x="153.53"
        y="-58.2"
        font-family="Times,serif"
        font-size="14.00">
        1
      </text>
    </g>
    <!-- sp2_2 -->
    <g id="node7" class="node">
      <title>sp2_2</title>
      <ellipse
        fill="none"
        stroke="black"
        cx="185.03"
        cy="-18"
        rx="34.11"
        ry="18" />
      <text
        text-anchor="middle"
        x="185.03"
        y="-13.8"
        font-family="Times,serif"
        font-size="14.00">
        sp2_2
      </text>
    </g>
    <!-- sp2&#45;&gt;sp2_2 -->
    <g id="edge6" class="edge">
      <title>sp2&#45;&gt;sp2_2</title>
      <path
        fill="none"
        stroke="black"
        d="M185.03,-88.65C185.03,-76.96 185.03,-61.19 185.03,-47.62" />
      <polygon
        fill="black"
        stroke="black"
        points="188.53,-47.92 185.03,-37.92 181.53,-47.92 188.53,-47.92" />
      <text
        text-anchor="middle"
        x="188.53"
        y="-58.2"
        font-family="Times,serif"
        font-size="14.00">
        2
      </text>
    </g>
    <!-- ln -->
    <g id="node9" class="node">
      <title>ln</title>
      <ellipse
        fill="none"
        stroke="black"
        cx="265.03"
        cy="-106.8"
        rx="27"
        ry="18" />
      <text
        text-anchor="middle"
        x="265.03"
        y="-102.6"
        font-family="Times,serif"
        font-size="14.00">
        ln
      </text>
    </g>
    <!-- p2&#45;&gt;ln -->
    <g id="edge8" class="edge">
      <title>p2&#45;&gt;ln</title>
      <path
        fill="none"
        stroke="black"
        d="M265.03,-177.45C265.03,-165.76 265.03,-149.99 265.03,-136.42" />
      <polygon
        fill="black"
        stroke="black"
        points="268.53,-136.72 265.03,-126.72 261.53,-136.72 268.53,-136.72" />
    </g>
    <!-- rn -->
    <g id="node12" class="node">
      <title>rn</title>
      <ellipse
        fill="none"
        stroke="black"
        cx="337.03"
        cy="-106.8"
        rx="27"
        ry="18" />
      <text
        text-anchor="middle"
        x="337.03"
        y="-102.6"
        font-family="Times,serif"
        font-size="14.00">
        rn
      </text>
    </g>
    <!-- p2&#45;&gt;rn -->
    <g id="edge11" class="edge">
      <title>p2&#45;&gt;rn</title>
      <path
        fill="none"
        stroke="black"
        d="M277.58,-179.48C288.56,-166.24 304.69,-146.79 317.38,-131.49" />
      <polygon
        fill="black"
        stroke="black"
        points="319.74,-134.13 323.43,-124.2 314.35,-129.66 319.74,-134.13" />
    </g>
    <!-- ln_5 -->
    <g id="node10" class="node">
      <title>ln_5</title>
      <ellipse
        fill="none"
        stroke="black"
        cx="265.03"
        cy="-18"
        rx="28.2"
        ry="18" />
      <text
        text-anchor="middle"
        x="265.03"
        y="-13.8"
        font-family="Times,serif"
        font-size="14.00">
        ln_5
      </text>
    </g>
    <!-- ln&#45;&gt;ln_5 -->
    <g id="edge9" class="edge">
      <title>ln&#45;&gt;ln_5</title>
      <path
        fill="none"
        stroke="black"
        d="M265.03,-88.65C265.03,-76.96 265.03,-61.19 265.03,-47.62" />
      <polygon
        fill="black"
        stroke="black"
        points="268.53,-47.92 265.03,-37.92 261.53,-47.92 268.53,-47.92" />
      <text
        text-anchor="middle"
        x="268.53"
        y="-58.2"
        font-family="Times,serif"
        font-size="14.00">
        5
      </text>
    </g>
    <!-- ln_6 -->
    <g id="node11" class="node">
      <title>ln_6</title>
      <ellipse
        fill="none"
        stroke="black"
        cx="339.03"
        cy="-18"
        rx="28.2"
        ry="18" />
      <text
        text-anchor="middle"
        x="339.03"
        y="-13.8"
        font-family="Times,serif"
        font-size="14.00">
        ln_6
      </text>
    </g>
    <!-- ln&#45;&gt;ln_6 -->
    <g id="edge10" class="edge">
      <title>ln&#45;&gt;ln_6</title>
      <path
        fill="none"
        stroke="black"
        d="M277.92,-90.68C289.21,-77.44 305.79,-57.99 318.84,-42.69" />
      <polygon
        fill="black"
        stroke="black"
        points="321.24,-45.27 325.06,-35.39 315.91,-40.73 321.24,-45.27" />
      <text
        text-anchor="middle"
        x="312.53"
        y="-58.2"
        font-family="Times,serif"
        font-size="14.00">
        6
      </text>
    </g>
  </g>
</svg>
